Coordinates
version=1
nRows=27
nColumns=38
inDegrees=no

Units are S.I. units (second, meters, Newtons, ...)
If the header above contains a line with 'inDegrees', this indicates whether rotational values are in degrees (yes) or radians (no).

endheader
time	pelvis_tilt	pelvis_list	pelvis_rotation	pelvis_tx	pelvis_ty	pelvis_tz	hip_flexion_r	hip_adduction_r	hip_rotation_r	knee_angle_r	ankle_angle_r	subtalar_angle_r	mtp_angle_r	hip_flexion_l	hip_adduction_l	hip_rotation_l	knee_angle_l	ankle_angle_l	subtalar_angle_l	mtp_angle_l	lumbar_extension	lumbar_bending	lumbar_rotation	arm_flex_r	arm_add_r	arm_rot_r	elbow_flex_r	pro_sup_r	wrist_flex_r	wrist_dev_r	arm_flex_l	arm_add_l	arm_rot_l	elbow_flex_l	pro_sup_l	wrist_flex_l	wrist_dev_l
1.37	-2.88957	1.47526	-1.80478	0.529505	0.756557	0.924897	-0.271548	0.00165948	-0.25829	0.194389	0.294629	0	0	0.28622	-0.0179071	-0.193239	0	0.0813303	0	0	-0.257311	-0.0453701	-0.0695888	-0.22995	-0.207492	0.0877555	0.700592	0.44408	0	0	-0.163386	-0.280257	0.295565	0.596871	1.44878	0	0
1.38	-2.88923	1.47994	-1.80652	0.52842	0.766552	0.922494	-0.270502	-0.00158976	-0.268695	0.212157	0.30865	0	0	0.294869	-0.0178286	-0.178288	0	0.0847313	0	0	-0.249877	-0.0480828	-0.0707578	-0.22758	-0.211591	0.111393	0.695043	0.477243	0	0	-0.167716	-0.288729	0.337099	0.61015	1.18844	0	0
1.39	-2.90589	1.47613	-1.79366	0.527523	0.776865	0.921142	-0.284802	-0.00336087	-0.264125	0.216206	0.310031	0	0	0.290754	-0.0180256	-0.165089	0	0.0861202	0	0	-0.252706	-0.0515448	-0.0651971	-0.228768	-0.20484	0.0910997	0.693612	0.461597	0	0	-0.16383	-0.291466	0.342107	0.603754	1.27495	0	0
1.4	-2.90718	1.47583	-1.79683	0.526499	0.787581	0.919493	-0.291479	-0.00760895	-0.263236	0.228554	0.315328	0	0	0.288343	-0.01761	-0.151425	0	0.088677	0	0	-0.250498	-0.0557402	-0.0615671	-0.228948	-0.202359	0.0877842	0.690954	0.4548	0	0	-0.164709	-0.29073	0.329258	0.600506	1.32453	0	0
1.41	-2.89674	1.4777	-1.8161	0.525382	0.79919	0.917772	-0.295607	-0.0187673	-0.271241	0.244174	0.32661	0	0	0.280493	-0.015381	-0.13868	0	0.0902424	0	0	-0.244313	-0.0607713	-0.0572048	-0.228264	-0.202247	0.0924152	0.6873	0.441253	0	0	-0.169659	-0.279681	0.26474	0.590378	1.49608	0	0
1.42	-2.87777	1.47642	-1.83917	0.52434	0.810194	0.916348	-0.302549	-0.0253166	-0.269562	0.257956	0.329653	0	0	0.291475	-0.0152841	-0.147632	0.0316674	0.103496	0	0	-0.241803	-0.0675936	-0.0538251	-0.22916	-0.200079	0.0930905	0.683427	0.441728	0	0	-0.171743	-0.281729	0.259383	0.591817	1.49512	0	0
1.43	-2.86337	1.47562	-1.8577	0.52321	0.821285	0.914969	-0.307782	-0.0318736	-0.26725	0.274095	0.331981	0	0	0.307193	-0.0170612	-0.169235	0.0879532	0.120117	0	0	-0.238859	-0.0737429	-0.0500709	-0.230636	-0.197815	0.0919	0.680547	0.442575	0	0	-0.173873	-0.283709	0.253364	0.59395	1.49241	0	0
1.44	-2.85519	1.47426	-1.87047	0.522003	0.832712	0.913772	-0.313254	-0.0386347	-0.263766	0.291849	0.332101	0	0	0.318456	-0.0194798	-0.190937	0.138667	0.133178	0	0	-0.235957	-0.0793846	-0.0456006	-0.23285	-0.19612	0.0911757	0.678049	0.443027	0	0	-0.1763	-0.285535	0.247321	0.596153	1.48802	0	0
1.45	-2.84579	1.47234	-1.88432	0.520637	0.844451	0.912794	-0.319165	-0.0461316	-0.260331	0.310007	0.329486	0	0	0.323998	-0.0207594	-0.209678	0.177879	0.139769	0	0	-0.232915	-0.085232	-0.0412902	-0.235258	-0.19465	0.0918581	0.674541	0.442627	0	0	-0.179186	-0.287289	0.24102	0.598356	1.48286	0	0
1.46	-2.88049	1.4752	-1.85179	0.519011	0.85674	0.91109	-0.326111	-0.0456481	-0.257648	0.322978	0.326415	0	0	0.360649	-0.0445597	-0.287789	0.278798	0.17315	0	0	-0.224687	-0.0844421	-0.0379497	-0.240846	-0.194864	0.0933359	0.673517	0.441922	0	0	-0.184294	-0.288013	0.231474	0.60147	1.48879	0	0
1.47	-2.77915	1.46205	-1.95849	0.51703	0.868568	0.912106	-0.332595	-0.071322	-0.258597	0.35271	0.317332	0	0	0.307494	-0.00860904	-0.226953	0.199469	0.107779	0	0	-0.230644	-0.103795	-0.0354164	-0.238567	-0.190794	0.0939974	0.661946	0.443814	0	0	-0.184499	-0.292122	0.232273	0.602935	1.46265	0	0
1.48	-2.74335	1.46057	-1.99521	0.514752	0.880611	0.911725	-0.330798	-0.083687	-0.25853	0.382147	0.307553	0	0	0.306721	-0.00500763	-0.243506	0.218318	0.0928021	0	0	-0.225455	-0.111545	-0.0352511	-0.239602	-0.188964	0.0967034	0.653478	0.441572	0	0	-0.187069	-0.293165	0.223218	0.602973	1.4652	0	0
1.49	-2.76601	1.46604	-1.97076	0.512382	0.892968	0.910617	-0.323396	-0.0854814	-0.255587	0.414039	0.29314	0	0	0.342415	-0.0310227	-0.320288	0.316432	0.120599	0	0	-0.21503	-0.109514	-0.035543	-0.243754	-0.188546	0.0982872	0.647768	0.442863	0	0	-0.19123	-0.29374	0.215472	0.605108	1.4626	0	0
1.5	-2.73229	1.46457	-2.00246	0.509873	0.905212	0.910771	-0.317326	-0.0971879	-0.255162	0.450796	0.273703	0	0	0.342242	-0.0301333	-0.332828	0.343467	0.119222	0	0	-0.209804	-0.116796	-0.037633	-0.245207	-0.18579	0.100815	0.637695	0.441376	0	0	-0.19327	-0.296391	0.210199	0.606586	1.45785	0	0
1.51	-2.69612	1.46141	-2.03546	0.507307	0.917683	0.911384	-0.313461	-0.109789	-0.257639	0.488552	0.249177	0	0	0.340316	-0.0285205	-0.343539	0.371927	0.122589	0	0	-0.20555	-0.12529	-0.0409744	-0.24659	-0.182292	0.104696	0.625728	0.439188	0	0	-0.195425	-0.30017	0.206587	0.607844	1.4508	0	0
1.52	-2.65249	1.45959	-2.07563	0.504655	0.929785	0.912186	-0.295045	-0.125819	-0.254678	0.541159	0.211529	0	0	0.339491	-0.0261568	-0.351143	0.398553	0.128127	0	0	-0.200174	-0.133897	-0.0443703	-0.247316	-0.178658	0.110222	0.612693	0.43569	0	0	-0.195952	-0.304603	0.206176	0.608539	1.44029	0	0
1.53	-2.59585	1.45757	-2.12672	0.501663	0.941691	0.913197	-0.277671	-0.142684	-0.242084	0.59141	0.171114	0	0	0.336607	-0.0195239	-0.353235	0.418014	0.133783	0	0	-0.19472	-0.143381	-0.0496664	-0.248658	-0.175026	0.116691	0.600684	0.431341	0	0	-0.195472	-0.309835	0.207515	0.610709	1.42773	0	0
1.54	-2.53118	1.45611	-2.1845	0.498452	0.953422	0.914209	-0.253214	-0.161029	-0.240129	0.648143	0.117706	0	0	0.332755	-0.0103962	-0.353105	0.431764	0.139326	0	0	-0.188108	-0.152854	-0.0559032	-0.25117	-0.173577	0.133039	0.591594	0.407388	0	0	-0.194788	-0.31895	0.225736	0.617391	1.36638	0	0
1.55	-2.45767	1.45514	-2.25049	0.495078	0.965029	0.91511	-0.224555	-0.18039	-0.239175	0.706628	0.0561116	0	0	0.327302	0.00135266	-0.351085	0.437885	0.14314	0	0	-0.180386	-0.162159	-0.0625162	-0.254648	-0.170916	0.14208	0.582534	0.403936	0	0	-0.19354	-0.32569	0.230206	0.622011	1.35483	0	0
1.56	-2.38468	1.45392	-2.31501	0.491586	0.9766	0.915905	-0.1912	-0.200893	-0.257191	0.769962	-0.0130535	0	0	0.319759	0.0143823	-0.348659	0.439054	0.147192	0	0	-0.172504	-0.170752	-0.0695681	-0.259827	-0.168183	0.147452	0.575752	0.403482	0	0	-0.192046	-0.333012	0.235086	0.627974	1.34583	0	0
1.57	-2.30611	1.45366	-2.38649	0.488059	0.987615	0.9165	-0.159361	-0.217871	-0.231074	0.823154	-0.0720239	0	0	0.312505	0.0280692	-0.344811	0.435965	0.150892	0	0	-0.163712	-0.178186	-0.0752405	-0.264999	-0.168518	0.161269	0.572917	0.385341	0	0	-0.189141	-0.339603	0.237587	0.634944	1.34768	0	0
1.58	-2.24671	1.45078	-2.43776	0.484548	0.998699	0.917314	-0.124637	-0.236996	-0.245232	0.883542	-0.138816	0	0	0.300107	0.0426005	-0.340231	0.429873	0.156002	0	0	-0.158387	-0.185278	-0.0815505	-0.271255	-0.167592	0.166148	0.571651	0.385776	0	0	-0.186007	-0.347341	0.241779	0.644576	1.34459	0	0
1.59	-2.20031	1.44842	-2.47745	0.481235	1.00922	0.918156	-0.0918471	-0.251548	-0.235251	0.936976	-0.191424	0	0	0.288082	0.0546627	-0.336445	0.425146	0.162076	0	0	-0.154665	-0.190459	-0.086605	-0.276708	-0.166594	0.166304	0.57254	0.388343	0	0	-0.18075	-0.353908	0.242313	0.652754	1.34927	0	0
1.6	-2.1784	1.44467	-2.49369	0.478116	1.01934	0.91937	-0.0617825	-0.264074	-0.224299	0.986794	-0.237065	0	0	0.272275	0.0658541	-0.331057	0.418318	0.167282	0	0	-0.155225	-0.194614	-0.0910346	-0.28104	-0.166595	0.167455	0.57554	0.387425	0	0	-0.173676	-0.361458	0.246337	0.662062	1.34774	0	0
1.61	-2.18843	1.43923	-2.47917	0.475183	1.02913	0.921128	-0.0374543	-0.274052	-0.213319	1.03027	-0.266316	0	0	0.250774	0.0757417	-0.324619	0.408284	0.171263	0	0	-0.161462	-0.1973	-0.0947598	-0.283762	-0.166167	0.162308	0.578627	0.398846	0	0	-0.164483	-0.369296	0.252122	0.671402	1.3469	0	0
1.62	-2.21943	1.43474	-2.444	0.472426	1.03863	0.923154	-0.0162763	-0.279786	-0.202526	1.06765	-0.275726	0	0	0.228489	0.0813199	-0.320027	0.400583	0.176111	0	0	-0.170183	-0.196915	-0.0991283	-0.284662	-0.166433	0.157834	0.581583	0.403689	0	0	-0.154098	-0.37561	0.254506	0.678343	1.34964	0	0
1.63	-2.27561	1.43201	-2.38526	0.468896	1.04781	0.925326	0.00414212	-0.291051	-0.187931	1.09965	-0.260813	0	0	0.206227	0.0875955	-0.310344	0.393744	0.177433	0	0	-0.180876	-0.190521	-0.103109	-0.283693	-0.16956	0.155983	0.584338	0.408586	0	0	-0.142971	-0.379444	0.256104	0.684082	1.35172	0	0
